<?xml version="1.0" standalone="no"?>
<!DOCTYPE svg PUBLIC "-//W3C//DTD SVG 20010904//EN"
 "http://www.w3.org/TR/2001/REC-SVG-20010904/DTD/svg10.dtd">
<svg version="1.0" xmlns="http://www.w3.org/2000/svg"
 width="16.000000pt" height="16.000000pt" viewBox="0 0 16.000000 16.000000"
 preserveAspectRatio="xMidYMid meet">
<metadata>
Created by potrace 1.11, written by Peter Selinger 2001-2013
</metadata>
<g transform="translate(0.000000,16.000000) scale(0.005281,-0.005281)"
fill="#000000" stroke="none">
<path d="M1221 2800 c-162 -94 -297 -170 -300 -170 -2 0 -12 -6 -20 -14 -9 -7
-47 -31 -86 -51 -38 -21 -74 -41 -80 -45 -5 -4 -98 -58 -205 -120 -107 -61
-199 -115 -203 -119 -4 -4 -8 -120 -8 -257 l-1 -250 -31 -18 c-18 -10 -48 -27
-67 -38 -19 -11 -75 -43 -125 -73 l-90 -53 -3 -371 -2 -371 37 5 c143 19 301
38 316 39 14 1 24 -13 38 -49 143 -367 429 -631 801 -739 46 -13 108 -28 138
-32 105 -16 400 -8 430 11 4 2 22 7 40 10 56 10 221 76 295 117 268 152 467
395 558 684 14 44 28 97 32 117 9 44 5 41 199 153 l141 80 3 372 2 372 -27 -4
c-16 -3 -55 -8 -88 -12 -33 -3 -69 -8 -80 -10 -11 -2 -44 -7 -72 -10 l-53 -7
-2 168 -3 169 -535 309 c-294 169 -555 320 -580 334 -25 14 -49 29 -54 34 -6
5 -12 9 -15 9 -4 0 -138 -77 -300 -170z m1139 -433 c30 -17 98 -56 150 -87
l95 -56 3 -147 c2 -139 1 -147 -16 -147 -11 0 -34 -3 -51 -6 l-31 -6 0 123 0
124 -63 36 c-726 420 -923 532 -932 532 -5 0 -167 -91 -360 -203 -365 -212
-381 -221 -538 -310 l-97 -55 0 -135 0 -135 -44 -27 c-24 -16 -46 -28 -50 -28
-3 0 -6 87 -6 194 0 175 2 194 18 200 9 3 32 15 51 26 32 20 251 147 336 195
22 13 177 102 344 199 167 97 307 176 311 176 4 0 13 6 19 14 9 11 83 -28 409
-216 218 -127 422 -244 452 -261z m206 -1419 c-57 -180 -128 -303 -251 -435
-484 -523 -1335 -449 -1719 150 -29 45 -59 98 -68 117 -35 76 -48 114 -44 125
2 6 24 12 48 13 l45 3 28 -67 c125 -293 431 -532 746 -581 103 -16 307 -8 396
15 229 59 427 189 563 371 52 68 117 185 129 228 4 16 24 35 51 50 25 14 54
32 65 39 11 8 20 14 22 14 1 0 -4 -19 -11 -42z"/>
</g>
</svg>
